<svg width="16" height="16" viewBox="0 0 16 16" xmlns="http://www.w3.org/2000/svg">
<path fill-rule="evenodd" clip-rule="evenodd" d="M7.706 0.290159C7.484 0.362159 7.356 0.490159 7.294 0.699159C7.259 0.816159 7.253 1.08816 7.253 2.50816C7.253 4.38916 7.251 4.36516 7.443 4.55716C7.7 4.81316 8.3 4.81316 8.557 4.55716C8.749 4.36516 8.747 4.38916 8.747 2.50816C8.747 0.688159 8.744 0.656159 8.596 0.480159C8.472 0.333159 8.339 0.284159 8.04 0.276159C7.92848 0.269841 7.8166 0.27453 7.706 0.290159ZM2.753 2.26616C2.595 2.33816 2.362 2.56616 2.281 2.72816C2.23933 2.80903 2.21659 2.89832 2.21451 2.98928C2.21243 3.08023 2.23106 3.17047 2.269 3.25316C2.343 3.41816 4.667 5.75016 4.85 5.84316C5.11 5.97649 5.37433 5.91183 5.643 5.64916C5.907 5.39116 5.977 5.11116 5.843 4.85016C5.75 4.66716 3.418 2.34316 3.253 2.26916C3.17412 2.23513 3.0892 2.21733 3.0033 2.21681C2.9174 2.21629 2.83228 2.23308 2.753 2.26616ZM12.853 2.28216C12.73 2.33916 12.52 2.53616 11.518 3.54116C10.597 4.46416 10.316 4.76216 10.271 4.86016C10.2338 4.94147 10.2146 5.02986 10.2148 5.11927C10.215 5.20868 10.2345 5.29699 10.272 5.37816C10.342 5.52816 10.572 5.76416 10.727 5.84516C10.884 5.92716 11.117 5.92616 11.28 5.84316C11.447 5.75716 13.757 3.44716 13.843 3.28016C13.8838 3.19414 13.9053 3.10021 13.9058 3.00499C13.9063 2.90978 13.8859 2.81562 13.846 2.72916C13.7353 2.54409 13.579 2.39053 13.392 2.28316C13.3092 2.23854 13.2167 2.2151 13.1226 2.21492C13.0286 2.21475 12.936 2.23785 12.853 2.28216ZM0.698998 7.29216C0.404331 7.38483 0.257331 7.62049 0.257998 7.99916C0.258998 8.38616 0.402998 8.61816 0.697998 8.70616C0.815998 8.74116 1.079 8.74716 2.508 8.74716C3.997 8.74716 4.196 8.74216 4.318 8.70216C4.40769 8.67285 4.48921 8.62281 4.55593 8.55609C4.62265 8.48937 4.67269 8.40785 4.702 8.31816C4.788 8.05316 4.745 7.67716 4.608 7.49116C4.55339 7.43113 4.48876 7.38105 4.417 7.34316L4.28 7.26716L2.547 7.26116C1.152 7.25716 0.790998 7.26316 0.698998 7.29216ZM11.745 7.27816C11.6098 7.31556 11.4877 7.38962 11.392 7.49216C11.255 7.67716 11.212 8.05316 11.298 8.31816C11.356 8.49816 11.502 8.64416 11.682 8.70216C11.804 8.74216 12.003 8.74716 13.492 8.74716C14.921 8.74716 15.184 8.74116 15.302 8.70616C15.597 8.61816 15.741 8.38616 15.742 7.99916C15.742 7.61416 15.595 7.38316 15.29 7.29116C15.187 7.26016 14.864 7.25416 13.496 7.25616C12.578 7.25816 11.79 7.26816 11.745 7.27816ZM4.853 10.2822C4.73 10.3392 4.52 10.5362 3.518 11.5412C2.597 12.4642 2.316 12.7622 2.271 12.8602C2.2338 12.9415 2.21464 13.0299 2.21481 13.1193C2.21498 13.2087 2.23449 13.297 2.272 13.3782C2.342 13.5282 2.572 13.7642 2.727 13.8452C2.884 13.9272 3.117 13.9262 3.28 13.8432C3.447 13.7572 5.757 11.4472 5.843 11.2802C5.88382 11.1941 5.90525 11.1002 5.90577 11.005C5.90629 10.9098 5.88588 10.8156 5.846 10.7292C5.73532 10.5441 5.579 10.3905 5.392 10.2832C5.30921 10.2385 5.21667 10.2151 5.12262 10.2149C5.02858 10.2147 4.93595 10.2378 4.853 10.2822ZM10.753 10.2662C10.595 10.3382 10.362 10.5662 10.281 10.7282C10.2393 10.809 10.2166 10.8983 10.2145 10.9893C10.2124 11.0802 10.2311 11.1705 10.269 11.2532C10.343 11.4182 12.667 13.7502 12.85 13.8432C13.11 13.9765 13.3743 13.9118 13.643 13.6492C13.907 13.3912 13.977 13.1112 13.843 12.8502C13.75 12.6672 11.418 10.3432 11.253 10.2692C11.1741 10.2351 11.0892 10.2173 11.0033 10.2168C10.9174 10.2163 10.8323 10.2331 10.753 10.2662ZM7.745 11.2772C7.60994 11.3153 7.48787 11.3897 7.392 11.4922C7.254 11.6782 7.253 11.6912 7.253 13.4892C7.253 14.9212 7.259 15.1842 7.294 15.3022C7.38066 15.5955 7.616 15.7418 8 15.7412C8.384 15.7425 8.61933 15.5962 8.706 15.3022C8.768 15.0902 8.767 11.8752 8.704 11.6902C8.68451 11.6156 8.649 11.5462 8.59995 11.4868C8.5509 11.4274 8.48949 11.3794 8.42 11.3462C8.31 11.2862 8.246 11.2712 8.057 11.2642C7.95283 11.2576 7.84826 11.262 7.745 11.2772Z" />
</svg>
