<svg width="559" height="684" viewBox="0 0 559 684" fill="none" xmlns="http://www.w3.org/2000/svg">
<path d="M239.227 12.6682C235.355 17.7013 235.162 21.7664 237.872 30.8647C244.26 52.3521 237.872 81.1954 220.063 109.265C210.771 123.783 170.506 178.76 169.151 178.76C168.377 178.76 166.441 175.856 164.699 172.372C163.15 169.081 157.149 160.757 151.535 154.175C134.694 134.236 121.337 127.655 114.368 135.591C112.626 137.527 110.69 144.883 109.916 152.626C106.625 187.858 98.688 205.861 68.1024 249.61C39.6461 290.455 30.5479 305.554 20.4817 329.752C0.930186 376.211 -5.07079 432.349 4.41462 480.551C10.222 509.588 26.8699 549.852 42.937 573.275C63.2629 603.087 92.4934 630.381 124.434 649.352C166.441 674.324 226.064 687.1 278.136 682.067C344.147 675.873 396.607 650.901 441.131 604.442C471.329 572.695 491.074 536.882 503.463 490.617C507.916 473.582 508.303 468.742 508.496 432.349C508.496 398.086 507.916 390.342 504.238 376.018C495.914 342.335 486.235 321.428 464.36 290.455C433.968 247.093 428.742 234.123 431.065 208.571C432.226 195.02 432.226 194.44 426.999 190.374C423.128 187.471 420.03 186.503 416.159 187.277C407.254 189.019 390.413 201.409 380.347 213.604L370.861 224.832L369.506 196.569C367.764 154.949 361.182 127.074 346.277 97.8433C332.726 71.5164 297.301 36.2849 267.102 19.2499C251.035 10.3452 242.711 8.21588 239.227 12.6682ZM272.135 47.5126C287.622 58.1594 301.366 72.0972 313.755 89.3258C328.274 109.458 334.662 122.815 340.856 145.851C346.664 167.532 347.438 175.469 348.019 228.123C348.212 257.353 349.374 278.647 350.535 281.744C353.052 287.745 360.214 290.455 366.022 287.358C368.345 286.196 371.442 280.776 373.378 275.162C381.315 250.384 393.51 228.123 402.221 222.509C406.673 219.605 406.673 219.605 409.964 234.124C413.836 251.933 421.773 267.226 441.711 295.682C457.779 318.524 463.973 329.365 471.716 348.336C509.077 439.318 480.427 546.368 401.834 609.668C379.379 627.865 341.243 647.029 313.174 654.192C287.041 660.967 244.26 662.709 217.352 658.063C193.155 653.805 168.377 645.481 144.76 633.479C119.595 620.509 112.432 615.476 91.7191 595.731C63.65 569.017 39.4526 528.558 29.58 491.585C20.4817 457.515 20.4817 404.667 29.7736 369.049C37.1296 340.786 64.8115 288.713 87.8475 259.87C107.786 235.285 126.563 196.375 129.661 173.727L130.822 165.016L136.436 170.436C145.534 179.147 153.665 198.698 154.826 215.153C156.181 231.026 158.504 234.898 167.215 234.898C173.797 234.898 177.669 228.51 184.25 207.022C189.671 189.213 197.801 174.501 212.319 156.304C225.483 139.463 241.163 117.008 248.906 103.264C255.1 92.4231 259.166 78.6789 262.069 58.7402C263.231 50.2227 264.586 43.2538 265.167 43.2538C265.747 43.2538 268.845 45.1896 272.135 47.5126Z" fill="black"/>
<path d="M272.135 47.5126C287.622 58.1594 301.366 72.0972 313.755 89.3258C328.274 109.458 334.662 122.815 340.856 145.851C346.664 167.532 347.438 175.469 348.019 228.123C348.212 257.353 349.374 278.647 350.535 281.744C353.052 287.745 360.214 290.455 366.022 287.358C368.345 286.196 371.442 280.776 373.378 275.162C381.315 250.384 393.51 228.123 402.221 222.509C406.673 219.605 406.673 219.605 409.964 234.124C413.836 251.933 421.773 267.226 441.711 295.682C457.779 318.524 463.973 329.365 471.716 348.336C509.077 439.318 480.427 546.368 401.834 609.668C379.379 627.865 341.243 647.029 313.174 654.192C287.041 660.967 244.26 662.709 217.352 658.063C193.155 653.805 168.377 645.481 144.76 633.479C119.595 620.509 112.432 615.476 91.7191 595.731C63.65 569.017 39.4526 528.558 29.58 491.585C20.4817 457.515 20.4817 404.667 29.7736 369.049C37.1296 340.786 64.8115 288.713 87.8475 259.87C107.786 235.285 126.563 196.375 129.661 173.727L130.822 165.016L136.436 170.436C145.534 179.147 153.665 198.698 154.826 215.153C156.181 231.026 158.504 234.898 167.215 234.898C173.797 234.898 177.669 228.51 184.25 207.022C189.671 189.213 197.801 174.501 212.319 156.304C225.483 139.463 241.163 117.008 248.906 103.264C255.1 92.4231 259.166 78.6789 262.069 58.7402C263.231 50.2227 264.586 43.2538 265.167 43.2538C265.747 43.2538 268.845 45.1896 272.135 47.5126Z" fill="#FDC700"/>
<path d="M161.214 356.273C151.535 359.757 145.341 371.178 145.147 385.697C145.147 400.022 148.438 409.701 155.6 415.895C169.151 427.123 185.605 418.218 190.251 397.118C192.38 387.826 192.187 384.923 189.283 375.437C184.057 359.176 173.41 351.82 161.214 356.273Z" fill="black"/>
<path d="M323.628 360.144C315.885 366.726 312.207 375.437 312.207 387.826C312.207 400.215 315.885 408.926 323.628 415.508C337.179 426.736 351.697 419.38 357.892 398.279C360.602 388.794 360.602 386.858 357.892 377.373C355.762 370.21 352.665 365.177 348.019 360.919C339.308 353.369 331.952 353.175 323.628 360.144Z" fill="black"/>
<path d="M147.47 461.58C138.178 470.871 147.857 490.036 172.055 510.362C187.541 523.525 197.414 528.945 216.385 534.753C251.616 545.787 294.01 539.786 324.983 519.654C345.696 506.297 366.409 481.906 366.409 470.871C366.409 465.064 358.666 457.514 352.665 457.514C348.406 457.514 345.309 460.612 336.598 473.969C326.919 488.874 310.271 501.264 291.881 507.264C278.717 511.717 273.103 512.491 253.165 512.491C231.484 512.491 228.967 512.104 214.062 506.103C196.252 499.134 181.54 487.326 173.603 473.775C164.505 458.289 155.213 453.836 147.47 461.58Z" fill="black"/>
<path d="M471.184 0C477.433 1.0637 479.863 2.40568 484.446 6.69074C488.077 18.0298 483.782 28.3184 478.711 38.4718C476.863 41.9421 474.984 45.393 473.085 48.8365C469.486 55.4868 466.174 62.2813 462.821 69.058C461.555 71.5926 460.288 74.1265 459.02 76.6598C457.948 78.8037 456.876 80.9475 455.772 83.1564C454.497 85.7052 453.223 88.2541 451.948 90.8029C450.687 90.8029 449.425 90.8029 448.125 90.8029C447.652 91.8281 447.179 92.8532 446.691 93.9094C438.144 110.149 426.928 125.288 409.892 132.859C404.755 133.934 404.755 133.934 400.334 132.859C395.029 128.701 393.01 125.328 391.948 118.656C391.399 105.299 394.532 95.0532 400.334 83.1564C401.063 81.6409 401.793 80.1254 402.544 78.564C404.311 74.9743 406.139 71.415 407.98 67.8633C409.242 67.8633 410.504 67.8633 411.804 67.8633C411.971 66.7913 412.139 65.7194 412.312 64.615C414.128 58.9228 417.034 55.5903 420.884 51.0169C422.422 49.186 423.959 47.3551 425.544 45.4687C427.334 43.3737 429.126 41.2805 430.92 39.1886C431.94 37.9932 432.961 36.7977 434.012 35.566C437.274 31.7483 440.546 27.9392 443.824 24.1345C444.861 22.9299 445.897 21.7254 446.966 20.4843C463.683 1.2247 463.683 1.2247 471.184 0Z" fill="#FDC700"/>
<path d="M545.618 83.1564C548.523 86.0614 548.205 88.6657 548.486 92.7146C548.453 103.011 543.844 108.621 537.449 116.319C534.149 119.478 534.149 119.478 530.325 119.478C530.325 120.739 530.325 122.001 530.325 123.301C529.064 123.301 527.802 123.301 526.502 123.301C526.502 124.563 526.502 125.824 526.502 127.124C525.24 127.124 523.979 127.124 522.679 127.124C522.245 128.189 521.811 129.253 521.365 130.35C518.138 136.035 514.14 139.971 509.297 144.329C508.036 144.329 506.774 144.329 505.474 144.329C505.474 145.591 505.474 146.852 505.474 148.152C501.845 151.035 501.845 151.035 497.111 154.126C495.558 155.156 494.006 156.186 492.406 157.247C488.269 159.622 488.269 159.622 484.446 159.622C484.446 160.884 484.446 162.145 484.446 163.445C476.694 169.497 468.965 174.847 458.997 175.035C453.667 172.927 449.047 170.479 444.302 167.269C444.964 155.873 448.507 149.564 456.01 141.342C457.02 140.205 458.031 139.067 459.071 137.895C476.701 118.41 495.551 99.5196 518.856 86.9797C520.107 86.2774 521.359 85.5751 522.649 84.8515C530.799 80.7583 536.872 81.0573 545.618 83.1564Z" fill="#FDC700"/>
<path d="M520.648 184.354C526.502 186.385 526.502 186.385 528.19 189.589C529.078 192.3 529.946 195.019 530.796 197.743C535.258 209.927 548.172 215.251 559 220.795C559 224.58 559 228.365 559 232.265C556.889 233.24 556.889 233.24 554.736 234.236C537.873 242.612 530.947 251.106 524.59 268.586C522.679 270.497 522.679 270.497 516.824 270.617C514.971 270.577 513.118 270.538 511.209 270.497C510.63 268.93 510.051 267.363 509.454 265.748C508.653 263.688 507.852 261.628 507.027 259.505C505.863 256.445 505.863 256.445 504.675 253.322C500.153 244.703 493.765 240.08 484.804 236.566C482.794 235.777 480.783 234.989 478.711 234.176C478.711 229.129 478.711 224.083 478.711 218.883C481.495 217.6 484.284 216.328 487.074 215.06C488.627 214.35 490.179 213.64 491.779 212.909C495.916 211.236 495.916 211.236 499.739 211.236C499.739 209.975 499.739 208.713 499.739 207.413C501.001 207.413 502.262 207.413 503.562 207.413C504.114 205.718 504.666 204.022 505.235 202.276C511.254 184.554 511.254 184.554 520.648 184.354Z" fill="#FDC700"/>
</svg>
